{
    "asset": {
        "version": "2.0",
        "generator": "Open Asset Import Library (assimp v5.0.5eb040c7)"
    },
    "accessors": [
        {
            "bufferView": 0,
            "byteOffset": 0,
            "componentType": 5126,
            "count": 1280,
            "type": "VEC3",
            "max": [
                0.09323610365390778,
                0.09323609620332718,
                0.03917020559310913
            ],
            "min": [
                -0.09323610365390778,
                -0.09323610365390778,
                0.000003533812559908256
            ]
        },
        {
            "bufferView": 1,
            "byteOffset": 0,
            "componentType": 5126,
            "count": 1280,
            "type": "VEC3",
            "max": [
                1.0,
                1.0,
                0.9998576641082764
            ],
            "min": [
                -1.0,
                -1.0,
                -0.9998576641082764
            ]
        },
        {
            "bufferView": 2,
            "byteOffset": 0,
            "componentType": 5125,
            "count": 7680,
            "type": "SCALAR",
            "max": [
                1279
            ],
            "min": [
                0
            ]
        },
        {
            "bufferView": 3,
            "byteOffset": 0,
            "componentType": 5126,
            "count": 1280,
            "type": "VEC3",
            "max": [
                0.007721514441072941,
                0.1007150262594223,
                0.03853524103760719
            ],
            "min": [
                -0.178750678896904,
                -0.08575718104839325,
                -0.0006314308266155422
            ]
        },
        {
            "bufferView": 4,
            "byteOffset": 0,
            "componentType": 5126,
            "count": 1280,
            "type": "VEC3",
            "max": [
                1.0,
                1.0,
                0.9998576641082764
            ],
            "min": [
                -1.0,
                -1.0,
                -0.9998576641082764
            ]
        },
        {
            "bufferView": 5,
            "byteOffset": 0,
            "componentType": 5125,
            "count": 7680,
            "type": "SCALAR",
            "max": [
                1279
            ],
            "min": [
                0
            ]
        }
    ],
    "buffers": [
        {
            "byteLength": 122880,
            "uri": "result.bin"
        }
    ],
    "bufferViews": [
        {
            "buffer": 0,
            "byteOffset": 0,
            "byteLength": 15360,
            "target": 34962
        },
        {
            "buffer": 0,
            "byteOffset": 15360,
            "byteLength": 15360,
            "target": 34962
        },
        {
            "buffer": 0,
            "byteOffset": 30720,
            "byteLength": 30720,
            "target": 34963
        },
        {
            "buffer": 0,
            "byteOffset": 61440,
            "byteLength": 15360,
            "target": 34962
        },
        {
            "buffer": 0,
            "byteOffset": 76800,
            "byteLength": 15360,
            "target": 34962
        },
        {
            "buffer": 0,
            "byteOffset": 92160,
            "byteLength": 30720,
            "target": 34963
        }
    ],
    "materials": [
        {
            "name": "ring",
            "pbrMetallicRoughness": {
                "baseColorFactor": [
                    0.800000011920929,
                    0.800000011920929,
                    0.800000011920929,
                    1.0
                ],
                "metallicFactor": 0.0,
                "roughnessFactor": 0.873508870601654
            }
        }
    ],
    "meshes": [
        {
            "name": "Cylinder.003",
            "primitives": [
                {
                    "mode": 4,
                    "material": 0,
                    "indices": 2,
                    "attributes": {
                        "POSITION": 0,
                        "NORMAL": 1
                    }
                }
            ]
        },
        {
            "name": "Cylinder.004",
            "primitives": [
                {
                    "mode": 4,
                    "material": 0,
                    "indices": 5,
                    "attributes": {
                        "POSITION": 3,
                        "NORMAL": 4
                    }
                }
            ]
        }
    ],
    "nodes": [
        {
            "name": "RootNode",
            "children": [
                1,
                2
            ]
        },
        {
            "name": "ring",
            "matrix": [
                100.0,
                0.0,
                0.0,
                0.0,
                0.0,
                -0.000016292067812173629,
                -100.0,
                0.0,
                0.0,
                100.0,
                -0.000016292067812173629,
                0.0,
                0.0,
                0.0,
                0.0,
                1.0
            ],
            "mesh": 0
        },
        {
            "name": "ring_small",
            "matrix": [
                82.9097671508789,
                -31.185379028320314,
                -0.000007346322490775492,
                0.0,
                -0.000008239160706580151,
                -0.0000010377856369814254,
                -88.58079528808594,
                0.0,
                31.185379028320314,
                82.9097671508789,
                -0.000003871989520121133,
                0.0,
                15.799766540527344,
                0.005386024713516235,
                0.7473437190055847,
                1.0
            ],
            "mesh": 1
        }
    ],
    "scenes": [
        {
            "nodes": [
                0
            ]
        }
    ],
    "scene": 0
}