{
  "asset": {
    "version": "2.0",
    "generator": "THREE.GLTFExporter"
  },
  "scenes": [
    {
      "nodes": [
        2
      ],
      "name": "AuxScene"
    }
  ],
  "scene": 0,
  "nodes": [
    {
      "matrix": [
        82.90976672615669,
        -31.185379190960877,
        -0.000007346322632602655,
        0,
        -0.000008239160191389547,
        -0.0000010377859219756182,
        -88.58079528808551,
        0,
        31.18537919096065,
        82.90976672615697,
        -0.000003871989655598896,
        0,
        15.799766540527344,
        0.005386024713516235,
        0.7473437190055847,
        1
      ],
      "name": "ring_small",
      "mesh": 0
    },
    {
      "matrix": [
        100,
        0,
        0,
        0,
        0,
        -0.000016292067961387602,
        -99.99999999999868,
        0,
        0,
        99.99999999999868,
        -0.000016292067961387602,
        0,
        0,
        0,
        0,
        1
      ],
      "name": "ring",
      "mesh": 1
    },
    {
      "children": [
        0,
        1
      ]
    }
  ],
  "bufferViews": [
    {
      "buffer": 0,
      "byteOffset": 0,
      "byteLength": 92160,
      "target": 34962,
      "byteStride": 12
    },
    {
      "buffer": 0,
      "byteOffset": 92160,
      "byteLength": 92160,
      "target": 34962,
      "byteStride": 12
    },
    {
      "buffer": 0,
      "byteOffset": 184320,
      "byteLength": 61440,
      "target": 34962,
      "byteStride": 8
    },
    {
      "buffer": 0,
      "byteOffset": 245760,
      "byteLength": 15360,
      "target": 34963
    },
    {
      "buffer": 0,
      "byteOffset": 261120,
      "byteLength": 92160,
      "target": 34962,
      "byteStride": 12
    },
    {
      "buffer": 0,
      "byteOffset": 353280,
      "byteLength": 92160,
      "target": 34962,
      "byteStride": 12
    },
    {
      "buffer": 0,
      "byteOffset": 445440,
      "byteLength": 61440,
      "target": 34962,
      "byteStride": 8
    },
    {
      "buffer": 0,
      "byteOffset": 506880,
      "byteLength": 15360,
      "target": 34963
    }
  ],
  "buffers": [
    {
      "byteLength": 522240,
      "uri": "data:application/octet-stream;base64,"
    }
  ],
  "accessors": [
    {
      "bufferView": 0,
      "componentType": 5126,
      "count": 7680,
      "max": [
        0.007721514441072941,
        0.1007150262594223,
        0.03853524103760719
      ],
      "min": [
        -0.178750678896904,
        -0.08575718104839325,
        -0.0006314308266155422
      ],
      "type": "VEC3"
    },
    {
      "bufferView": 1,
      "componentType": 5126,
      "count": 7680,
      "max": [
        1,
        1,
        0.999847412109375
      ],
      "min": [
        -1,
        -1,
        -0.999847412109375
      ],
      "type": "VEC3"
    },
    {
      "bufferView": 2,
      "componentType": 5126,
      "count": 7680,
      "max": [
        0.4506402015686035,
        0.9997550845146179
      ],
      "min": [
        0.0003574216098058969,
        0.00011306662781862542
      ],
      "type": "VEC2"
    },
    {
      "bufferView": 3,
      "componentType": 5123,
      "count": 7680,
      "max": [
        7679
      ],
      "min": [
        0
      ],
      "type": "SCALAR"
    },
    {
      "bufferView": 4,
      "componentType": 5126,
      "count": 7680,
      "max": [
        0.09323610365390778,
        0.09323609620332718,
        0.03917020559310913
      ],
      "min": [
        -0.09323610365390778,
        -0.09323610365390778,
        0.000003533812559908256
      ],
      "type": "VEC3"
    },
    {
      "bufferView": 5,
      "componentType": 5126,
      "count": 7680,
      "max": [
        1,
        1,
        0.999847412109375
      ],
      "min": [
        -1,
        -1,
        -0.999847412109375
      ],
      "type": "VEC3"
    },
    {
      "bufferView": 6,
      "componentType": 5126,
      "count": 7680,
      "max": [
        0.4506402015686035,
        0.9997550845146179
      ],
      "min": [
        0.0003574216098058969,
        0.00011306662781862542
      ],
      "type": "VEC2"
    },
    {
      "bufferView": 7,
      "componentType": 5123,
      "count": 7680,
      "max": [
        7679
      ],
      "min": [
        0
      ],
      "type": "SCALAR"
    }
  ],
  "materials": [
    {
      "pbrMetallicRoughness": {
        "baseColorFactor": [
          0.800000011920929,
          0.800000011920929,
          0.800000011920929,
          1
        ],
        "metallicFactor": 0.5,
        "roughnessFactor": 0.5
      },
      "name": "ring"
    }
  ],
  "meshes": [
    {
      "primitives": [
        {
          "mode": 4,
          "attributes": {
            "POSITION": 0,
            "NORMAL": 1,
            "TEXCOORD_0": 2
          },
          "indices": 3,
          "material": 0
        }
      ]
    },
    {
      "primitives": [
        {
          "mode": 4,
          "attributes": {
            "POSITION": 4,
            "NORMAL": 5,
            "TEXCOORD_0": 6
          },
          "indices": 7,
          "material": 0
        }
      ]
    }
  ]
}