{
  "accessors": [
    {
      "bufferView": 2,
      "componentType": 5126,
      "count": 1554,
      "max": [
        0.093236103653907776,
        0.093236096203327179,
        0.039170205593109131
      ],
      "min": [
        -0.093236103653907776,
        -0.093236103653907776,
        3.5338125599082559e-06
      ],
      "type": "VEC3"
    },
    {
      "bufferView": 2,
      "byteOffset": 18648,
      "componentType": 5126,
      "count": 1554,
      "max": [
        1,
        1,
        0.99985766410827637
      ],
      "min": [
        -1,
        -1,
        -0.99985766410827637
      ],
      "type": "VEC3"
    },
    {
      "bufferView": 1,
      "componentType": 5126,
      "count": 1554,
      "max": [
        0.45064020156860352,
        0.99975508451461792
      ],
      "min": [
        0.00035742160980589688,
        0.00011306662781862542
      ],
      "type": "VEC2"
    },
    {
      "bufferView": 0,
      "componentType": 5125,
      "count": 7680,
      "max": [
        1553
      ],
      "min": [
        0
      ],
      "type": "SCALAR"
    },
    {
      "bufferView": 2,
      "byteOffset": 37296,
      "componentType": 5126,
      "count": 1554,
      "max": [
        0.0077215144410729408,
        0.1007150262594223,
        0.038535241037607193
      ],
      "min": [
        -0.17875067889690399,
        -0.08575718104839325,
        -0.00063143082661554217
      ],
      "type": "VEC3"
    },
    {
      "bufferView": 2,
      "byteOffset": 55944,
      "componentType": 5126,
      "count": 1554,
      "max": [
        1,
        1,
        0.99985766410827637
      ],
      "min": [
        -1,
        -1,
        -0.99985766410827637
      ],
      "type": "VEC3"
    },
    {
      "bufferView": 1,
      "byteOffset": 12432,
      "componentType": 5126,
      "count": 1554,
      "max": [
        0.45064020156860352,
        0.99975508451461792
      ],
      "min": [
        0.00035742160980589688,
        0.00011306662781862542
      ],
      "type": "VEC2"
    },
    {
      "bufferView": 0,
      "byteOffset": 30720,
      "componentType": 5125,
      "count": 7680,
      "max": [
        1553
      ],
      "min": [
        0
      ],
      "type": "SCALAR"
    }
  ],
  "asset": {
    "extras": {
      "author": "SusanKing (https://sketchfab.com/krolzuzannapl)",
      "license": "CC-BY-4.0 (http://creativecommons.org/licenses/by/4.0/)",
      "source": "https://sketchfab.com/3d-models/classic-golden-wedding-rings-99310b3e19b6419ab4663ac415458d80",
      "title": "Classic golden wedding rings"
    },
    "generator": "Sketchfab-9.26.0",
    "version": "2.0"
  },
  "bufferViews": [
    {
      "buffer": 0,
      "byteLength": 61440,
      "byteOffset": 0,
      "name": "floatBufferViews",
      "target": 34963
    },
    {
      "buffer": 0,
      "byteLength": 24864,
      "byteOffset": 61440,
      "byteStride": 8,
      "name": "floatBufferViews",
      "target": 34962
    },
    {
      "buffer": 0,
      "byteLength": 74592,
      "byteOffset": 86304,
      "byteStride": 12,
      "name": "floatBufferViews",
      "target": 34962
    }
  ],
  "buffers": [
    {
      "byteLength": 160896,
      "uri": "scene.bin"
    }
  ],
  "images": [
    {
      "uri": "textures/ring_baseColor.jpeg"
    },
    {
      "uri": "textures/ring_metallicRoughness.png"
    }
  ],
  "materials": [
    {
      "doubleSided": true,
      "emissiveFactor": [
        0,
        0,
        0
      ],
      "name": "ring",
      "occlusionTexture": {
        "index": 1,
        "strength": 1,
        "texCoord": 0
      },
      "pbrMetallicRoughness": {
        "baseColorFactor": [
          1,
          1,
          1,
          1
        ],
        "baseColorTexture": {
          "index": 0,
          "texCoord": 0
        },
        "metallicFactor": 1,
        "metallicRoughnessTexture": {
          "index": 1,
          "texCoord": 0
        },
        "roughnessFactor": 1
      }
    }
  ],
  "meshes": [
    {
      "name": "ring_ring_0",
      "primitives": [
        {
          "attributes": {
            "NORMAL": 1,
            "POSITION": 0,
            "TEXCOORD_0": 2
          },
          "indices": 3,
          "material": 0,
          "mode": 4
        }
      ]
    },
    {
      "name": "ring_small_ring_0",
      "primitives": [
        {
          "attributes": {
            "NORMAL": 5,
            "POSITION": 4,
            "TEXCOORD_0": 6
          },
          "indices": 7,
          "material": 0,
          "mode": 4
        }
      ]
    }
  ],
  "nodes": [
    {
      "children": [
        1
      ],
      "name": "RootNode (gltf orientation matrix)",
      "rotation": [
        -0.70710678118654746,
        -0,
        -0,
        0.70710678118654757
      ]
    },
    {
      "children": [
        2
      ],
      "name": "RootNode (model correction matrix)"
    },
    {
      "children": [
        3
      ],
      "matrix": [
        1,
        0,
        0,
        0,
        0,
        0,
        1,
        0,
        0,
        -1,
        0,
        0,
        0,
        0,
        0,
        1
      ],
      "name": "be3e4e0465b84b5e8158b94adfddef05.fbx"
    },
    {
      "children": [
        4,
        6
      ],
      "name": "RootNode"
    },
    {
      "children": [
        5
      ],
      "matrix": [
        100,
        0,
        0,
        0,
        0,
        -1.6292067939183141e-05,
        -99.999999999998678,
        0,
        0,
        99.999999999998678,
        -1.6292067939183141e-05,
        0,
        0,
        0,
        0,
        1
      ],
      "name": "ring"
    },
    {
      "mesh": 0,
      "name": "ring_ring_0"
    },
    {
      "children": [
        7
      ],
      "matrix": [
        82.909766726156676,
        -31.185379190960887,
        -7.3463226326026548e-06,
        0,
        -8.239160191389547e-06,
        -1.0377859613133936e-06,
        -88.58079528808554,
        0,
        31.185379190960671,
        82.909766726157002,
        -3.8719896949366715e-06,
        0,
        15.799766540527344,
        0.0053860247135162354,
        0.74734371900558472,
        1
      ],
      "name": "ring_small"
    },
    {
      "mesh": 1,
      "name": "ring_small_ring_0"
    }
  ],
  "samplers": [
    {
      "magFilter": 9729,
      "minFilter": 9987,
      "wrapS": 10497,
      "wrapT": 10497
    }
  ],
  "scene": 0,
  "scenes": [
    {
      "name": "OSG_Scene",
      "nodes": [
        0
      ]
    }
  ],
  "textures": [
    {
      "sampler": 0,
      "source": 0
    },
    {
      "sampler": 0,
      "source": 1
    }
  ]
}

